<?xml version="1.0" encoding="UTF-8"?>
<svg width="100px" height="100px" viewBox="0 0 100 100" version="1.1" xmlns="http://www.w3.org/2000/svg" xmlns:xlink="http://www.w3.org/1999/xlink">
    <!-- Generator: Sketch 61.2 (89653) - https://sketch.com -->
    <title>Group 9</title>
    <desc>Created with Sketch.</desc>
    <g id="1.-Registration-and-Login-Page" stroke="none" stroke-width="1" fill="none" fill-rule="evenodd">
        <g id="Artboard" transform="translate(-17.000000, -13.000000)">
            <g id="Group-9" transform="translate(17.000000, 13.000000)">
                <g id="Group-8">
                    <g id="Group" fill="#FFFFFF">
                        <path d="M67.7725656,21.2499987 C61.3628087,21.2499987 56.9230657,25.9761065 56.9230657,31.7704769 L56.9230657,31.8674471 C56.9230657,37.6649968 61.4697087,42.4999975 67.865891,42.4999975 C74.2697091,42.4999975 78.7179362,37.7595826 78.7179362,31.9652122 L78.7179362,31.8674471 C78.7179362,26.0730768 74.1738385,21.2499987 67.7725656,21.2499987 M84.9994153,31.7156839 C84.9994153,40.9842537 77.6135044,48.5682558 67.4570075,48.5682558 C57.2920094,48.5682558 49.998065,41.0777131 49.998065,31.8099093 L49.998065,31.7156839 C49.998065,22.4524765 57.3870672,14.8677083 67.5427913,14.8677083 C77.7108806,14.8677083 84.9994153,22.3620813 84.9994153,31.6214584 L84.9994153,31.7156839 Z M84.9994153,67.3987967 C84.701104,76.7133302 77.4326628,84.255965 67.4570075,84.255965 C57.4403923,84.255965 50.2422784,76.7577617 49.998065,67.3987967 L50.0073389,52.5487078 L50.0073389,51.6861233 C50.0073389,51.065614 50.5313158,50.5546515 51.1688984,50.5546515 L56.4867233,50.5546515 C57.132807,50.5546515 57.6552383,51.065614 57.6552383,51.6861233 L57.6552383,52.5487078 L57.6459643,52.5487078 L57.602686,67.3987967 C57.8708571,72.9205631 61.8965147,77.4219364 67.5466554,77.4219364 C73.233119,77.4219364 77.1930863,72.9535037 77.409478,67.4041591 C77.409478,67.4041591 77.4929433,56.2526118 77.516901,52.564029 L77.5284934,52.564029 L77.5284934,51.6562469 C77.5284934,51.052591 78.0401051,50.5546515 78.6622311,50.5546515 L83.8579493,50.5546515 C84.4831666,50.5546515 84.996324,51.052591 84.996324,51.6562469 L84.996324,52.564029 L84.9994153,52.564029 L84.9994153,67.3987967 Z M31.4818946,48.5521685 L16.9697428,48.5521685 L16.9697428,48.5682558 L16.1142229,48.5682558 C15.500598,48.5682558 14.9990331,48.0657199 14.9990331,47.4406142 L14.9990331,42.2972819 C14.9990331,41.6798369 15.500598,41.1711725 16.1142229,41.1711725 L16.9697428,41.1711725 L16.9697428,41.1826634 C20.916572,41.2010489 31.4818946,41.2393519 31.4818946,41.2393519 C36.8839578,40.9788913 41.2952562,37.0980272 41.2952562,31.6628257 C41.2952562,26.1885551 36.9225991,22.3797007 31.4818946,22.1652037 L16.1907328,22.0671479 L16.1907328,22.0602533 L16.0840827,22.0602533 C15.482823,22.0602533 14.9990331,21.5692084 14.9990331,20.973213 L14.9990331,15.9731341 C14.9990331,15.3702442 15.482823,14.8830295 16.0840827,14.8830295 L16.1907328,14.8830295 L16.1907328,14.8677083 L31.4818946,14.8677083 C40.6089856,15.1549811 47.9948965,22.1483503 47.9948965,31.7509227 C47.9948965,41.3872017 40.6507182,48.3169878 31.4818946,48.5521685 L31.4818946,48.5521685 Z M46.3224981,84.255965 L39.2719943,84.255965 C38.6089084,84.255965 37.7564798,83.8461224 37.3700662,83.3435865 L27.7004505,70.8192582 C27.3148096,70.3190205 26.6277661,70.2791854 26.1694795,70.7257988 L23.691795,73.1381243 C23.2350541,73.5862699 22.8625513,74.456515 22.8625513,75.0831528 L22.8625513,83.1298556 C22.8625513,83.7457685 22.3200265,84.255965 21.6654417,84.255965 L16.1961426,84.255965 C15.5415579,84.255965 14.9990331,83.7457685 14.9990331,83.1298556 L14.9990331,51.6861233 C14.9990331,51.065614 15.5415579,50.5546515 16.1961426,50.5546515 L21.6654417,50.5546515 C22.3200265,50.5546515 22.8625513,51.065614 22.8625513,51.6861233 L22.8625513,64.1598916 C22.8625513,64.7796348 23.2280986,64.9121633 23.6771113,64.4640177 L36.547005,51.3812311 C36.985971,50.926191 37.8955888,50.5546515 38.5555833,50.5546515 L45.6586394,50.5546515 C46.3132242,50.5546515 46.4786092,50.9231267 46.0249596,51.3697402 L33.1341995,64.0434503 C32.6790042,64.4892977 32.6233606,65.2630191 33.0159569,65.7609587 L46.8093793,83.3458847 C47.1988843,83.8461224 46.9824927,84.255965 46.3224981,84.255965 L46.3224981,84.255965 Z M92.14034,0 L7.85115298,0 C3.53645792,0 0,3.51775127 0,7.81535245 L0,91.2991281 C0,95.6020917 3.53645792,99.1236733 7.85115298,99.1236733 L92.14034,99.1236733 C96.4612176,99.1236733 100,95.6020917 100,91.2991281 L100,7.81535245 C100,3.51775127 96.4612176,0 92.14034,0 L92.14034,0 Z" id="Fill-5"></path>
                    </g>
                    <g id="Group-7"></g>
                </g>
            </g>
        </g>
    </g>
</svg>